<svg width="1080" height="1080" viewBox="0 0 1080 1080" fill="none" xmlns="http://www.w3.org/2000/svg">
<rect width="1080" height="1080" fill="white"/>
<path fill-rule="evenodd" clip-rule="evenodd" d="M184.049 518.018C186.982 519.579 188.093 523.222 186.531 526.155L162.43 571.408C160.868 574.34 157.225 575.451 154.292 573.89C151.36 572.328 150.249 568.685 151.811 565.753L175.912 520.499C177.474 517.567 181.117 516.456 184.049 518.018Z" fill="url(#paint0_linear_142_21)"/>
<path d="M200.033 571.407C201.594 574.339 205.238 575.45 208.17 573.889C211.102 572.327 212.213 568.684 210.652 565.751L190.146 526.587L183.324 539.354L200.033 571.407Z" fill="url(#paint1_linear_142_21)"/>
<path d="M222.251 517.807C225.401 518.861 227.101 522.27 226.047 525.421L213.263 563.489L205.577 548.737L214.638 521.604C215.692 518.453 219.1 516.753 222.251 517.807Z" fill="url(#paint2_linear_142_21)"/>
<path d="M176.186 496.306C177.926 493.476 181.631 492.593 184.461 494.334L198.618 503.001L193.004 513.714L178.158 504.581C175.328 502.841 174.445 499.136 176.186 496.306Z" fill="url(#paint3_linear_142_21)"/>
<path d="M223.566 518.388C226.395 520.129 227.278 523.834 225.538 526.664C223.797 529.493 220.092 530.376 217.262 528.636L195.888 515.488L201.489 504.808L223.566 518.388Z" fill="url(#paint4_linear_142_21)"/>
<path fill-rule="evenodd" clip-rule="evenodd" d="M186.504 496.479C184.764 493.649 181.156 492.593 178.327 494.334L139.222 518.388C136.392 520.129 135.509 523.834 137.25 526.664C138.991 529.493 142.696 530.376 145.526 528.636L184.63 504.581C187.46 502.841 188.245 499.309 186.504 496.479Z" fill="url(#paint5_linear_142_21)"/>
<path fill-rule="evenodd" clip-rule="evenodd" d="M139.966 518.046C143.041 516.787 147.069 518.094 148.327 521.168L158.75 545.496L151.801 558.535L136.678 525.892C135.419 522.817 136.892 519.304 139.966 518.046Z" fill="url(#paint6_linear_142_21)"/>
<path fill-rule="evenodd" clip-rule="evenodd" d="M169.725 564.833L184.563 575.544C187.324 577.392 187.343 580.669 185.495 583.429C183.647 586.19 180.836 586.989 178.075 585.141L163.762 575.984L169.725 564.833Z" fill="url(#paint7_linear_142_21)"/>
<path fill-rule="evenodd" clip-rule="evenodd" d="M192.749 564.84L177.954 575.544C175.193 577.392 175.193 580.802 177.041 583.563C178.889 586.323 181.773 586.773 184.534 584.925L198.684 576.2L192.749 564.84Z" fill="url(#paint8_linear_142_21)"/>
<path d="M359.997 547.53H310.582V531.761H359.997V547.53ZM367.04 582.801H310.582C308.415 582.801 306.048 582.42 303.48 581.658C300.912 580.895 298.524 579.651 296.317 577.926C294.151 576.16 292.325 573.893 290.84 571.124C289.396 568.316 288.673 564.885 288.673 560.832V504.375C288.673 503.291 288.874 502.268 289.275 501.305C289.676 500.342 290.218 499.499 290.9 498.777C291.623 498.055 292.465 497.493 293.428 497.092C294.391 496.691 295.435 496.49 296.558 496.49H367.04V512.139H304.323V560.832C304.323 562.879 304.864 564.443 305.948 565.527C307.031 566.61 308.616 567.152 310.703 567.152H367.04V582.801Z" fill="black"/>
<path d="M421.631 527.307L447.994 496.49H469.361L432.224 539.766L469.12 582.801H447.873L421.631 552.225L395.509 582.801H374.202L411.038 539.766L374.082 496.49H395.268L421.631 527.307Z" fill="black"/>
<path d="M557.237 512.139H522.749V582.801H507.1V512.139H472.551V496.49H557.237V512.139Z" fill="black"/>
<path d="M655.044 525.501C655.044 529.072 654.603 532.262 653.72 535.071C652.837 537.88 651.634 540.368 650.109 542.535C648.624 544.661 646.899 546.487 644.933 548.012C642.966 549.537 640.9 550.801 638.733 551.804C636.606 552.767 634.44 553.469 632.233 553.91C630.066 554.352 628.019 554.572 626.093 554.572L658.776 582.801H634.58L601.958 554.572H590.702V538.923H626.093C628.06 538.763 629.845 538.362 631.45 537.72C633.095 537.037 634.5 536.135 635.663 535.011C636.867 533.887 637.79 532.543 638.432 530.978C639.074 529.373 639.395 527.548 639.395 525.501V515.63C639.395 514.747 639.275 514.085 639.034 513.644C638.833 513.162 638.553 512.821 638.191 512.621C637.87 512.38 637.509 512.239 637.108 512.199C636.747 512.159 636.406 512.139 636.085 512.139H584.443V582.801H568.793V504.375C568.793 503.291 568.994 502.268 569.395 501.305C569.797 500.342 570.338 499.499 571.02 498.777C571.743 498.055 572.585 497.493 573.548 497.092C574.511 496.691 575.555 496.49 576.678 496.49H636.085C639.576 496.49 642.525 497.132 644.933 498.416C647.34 499.66 649.286 501.245 650.771 503.171C652.296 505.057 653.379 507.103 654.021 509.31C654.703 511.517 655.044 513.584 655.044 515.51V525.501Z" fill="black"/>
<path d="M755.44 582.801H739.791V561.615H684.778V582.801H669.129V539.646C669.129 533.346 670.212 527.548 672.379 522.251C674.546 516.954 677.555 512.4 681.407 508.588C685.259 504.776 689.814 501.807 695.07 499.68C700.327 497.553 706.065 496.49 712.284 496.49H747.555C748.638 496.49 749.662 496.691 750.625 497.092C751.588 497.493 752.43 498.055 753.153 498.777C753.875 499.499 754.437 500.342 754.838 501.305C755.239 502.268 755.44 503.291 755.44 504.375V582.801ZM684.778 545.965H739.791V512.139H712.284C711.803 512.139 710.779 512.219 709.215 512.38C707.69 512.5 705.904 512.841 703.858 513.403C701.851 513.965 699.725 514.828 697.478 515.991C695.231 517.155 693.164 518.76 691.278 520.806C689.392 522.853 687.827 525.421 686.583 528.511C685.38 531.56 684.778 535.272 684.778 539.646V545.965Z" fill="black"/>
<path d="M850.96 582.801H794.502C793.058 582.801 791.493 582.641 789.808 582.32C788.163 581.958 786.517 581.417 784.872 580.695C783.267 579.972 781.722 579.049 780.238 577.926C778.753 576.762 777.429 575.378 776.265 573.773C775.142 572.128 774.239 570.242 773.557 568.115C772.875 565.948 772.533 563.521 772.533 560.832V518.459C772.533 517.014 772.694 515.47 773.015 513.824C773.376 512.139 773.918 510.494 774.64 508.889C775.362 507.244 776.305 505.679 777.469 504.194C778.633 502.71 780.017 501.405 781.622 500.282C783.267 499.118 785.153 498.195 787.28 497.513C789.406 496.831 791.814 496.49 794.502 496.49H850.96V512.139H794.502C792.456 512.139 790.891 512.681 789.808 513.764C788.724 514.848 788.183 516.453 788.183 518.579V560.832C788.183 562.838 788.724 564.403 789.808 565.527C790.931 566.61 792.496 567.152 794.502 567.152H850.96V582.801Z" fill="black"/>
<path d="M943.771 512.139H909.283V582.801H893.634V512.139H859.085V496.49H943.771V512.139Z" fill="black"/>
<defs>
<linearGradient id="paint0_linear_142_21" x1="155.643" y1="570.858" x2="182.153" y2="524.911" gradientUnits="userSpaceOnUse">
<stop stop-color="#8B23FC"/>
<stop offset="1" stop-color="#E73C89"/>
</linearGradient>
<linearGradient id="paint1_linear_142_21" x1="187.438" y1="531.551" x2="202.828" y2="565.774" gradientUnits="userSpaceOnUse">
<stop stop-color="#E83B7F"/>
<stop offset="1" stop-color="#D53FEE"/>
</linearGradient>
<linearGradient id="paint2_linear_142_21" x1="221.658" y1="525.211" x2="207.404" y2="556.163" gradientUnits="userSpaceOnUse">
<stop stop-color="#EA3A6D"/>
<stop offset="1" stop-color="#B132A5"/>
</linearGradient>
<linearGradient id="paint3_linear_142_21" x1="184.96" y1="501.281" x2="219.853" y2="519.816" gradientUnits="userSpaceOnUse">
<stop stop-color="#C63692"/>
<stop offset="1" stop-color="#E43A73"/>
</linearGradient>
<linearGradient id="paint4_linear_142_21" x1="184.96" y1="501.281" x2="219.853" y2="519.816" gradientUnits="userSpaceOnUse">
<stop stop-color="#C63692"/>
<stop offset="1" stop-color="#E43A73"/>
</linearGradient>
<linearGradient id="paint5_linear_142_21" x1="181.88" y1="499.126" x2="141.092" y2="525.718" gradientUnits="userSpaceOnUse">
<stop stop-color="#C63591"/>
<stop offset="0.880566" stop-color="#1902FD"/>
</linearGradient>
<linearGradient id="paint6_linear_142_21" x1="141" y1="520.04" x2="155.847" y2="555.052" gradientUnits="userSpaceOnUse">
<stop stop-color="#1400FF"/>
<stop offset="1" stop-color="#8B22FC"/>
</linearGradient>
<linearGradient id="paint7_linear_142_21" x1="179.848" y1="575.031" x2="150.716" y2="551.39" gradientUnits="userSpaceOnUse">
<stop stop-color="#C934FA"/>
<stop offset="1" stop-color="#1400FF"/>
</linearGradient>
<linearGradient id="paint8_linear_142_21" x1="196.839" y1="572.403" x2="179.935" y2="582.647" gradientUnits="userSpaceOnUse">
<stop stop-color="#E845FB"/>
<stop offset="1" stop-color="#C834F9"/>
</linearGradient>
</defs>
</svg>
