<svg width="1080" height="1080" viewBox="0 0 1080 1080" fill="none" xmlns="http://www.w3.org/2000/svg">
<rect width="1080" height="1080" fill="white"/>
<path fill-rule="evenodd" clip-rule="evenodd" d="M542.721 410.395C545.653 411.956 546.764 415.6 545.202 418.532L521.101 463.785C519.539 466.717 515.896 467.829 512.964 466.267C510.032 464.705 508.92 461.062 510.482 458.13L534.583 412.876C536.145 409.944 539.788 408.833 542.721 410.395Z" fill="url(#paint0_linear_142_49)"/>
<path d="M558.704 463.784C560.266 466.716 563.909 467.827 566.841 466.266C569.774 464.704 570.885 461.061 569.323 458.128L548.817 418.964L541.995 431.731L558.704 463.784Z" fill="url(#paint1_linear_142_49)"/>
<path d="M580.922 410.184C584.073 411.238 585.772 414.647 584.718 417.798L571.935 455.866L564.249 441.114L573.309 413.981C574.363 410.83 577.772 409.13 580.922 410.184Z" fill="url(#paint2_linear_142_49)"/>
<path d="M534.857 388.683C536.598 385.853 540.303 384.97 543.132 386.711L557.289 395.378L551.676 406.091L536.829 396.958C533.999 395.218 533.116 391.513 534.857 388.683Z" fill="url(#paint3_linear_142_49)"/>
<path d="M582.237 410.765C585.067 412.506 585.95 416.211 584.209 419.041C582.468 421.87 578.763 422.753 575.934 421.013L554.559 407.865L560.16 397.185L582.237 410.765Z" fill="url(#paint4_linear_142_49)"/>
<path fill-rule="evenodd" clip-rule="evenodd" d="M545.176 388.856C543.435 386.026 539.828 384.97 536.998 386.711L497.893 410.765C495.064 412.506 494.181 416.211 495.921 419.041C497.662 421.871 501.367 422.753 504.197 421.013L543.302 396.958C546.131 395.218 546.916 391.686 545.176 388.856Z" fill="url(#paint5_linear_142_49)"/>
<path fill-rule="evenodd" clip-rule="evenodd" d="M498.638 410.423C501.712 409.164 505.74 410.471 506.999 413.545L517.421 437.873L510.472 450.912L495.349 418.269C494.091 415.194 495.563 411.681 498.638 410.423Z" fill="url(#paint6_linear_142_49)"/>
<path fill-rule="evenodd" clip-rule="evenodd" d="M528.396 457.21L543.235 467.921C545.996 469.769 546.014 473.046 544.166 475.806C542.318 478.567 539.508 479.366 536.747 477.518L522.433 468.361L528.396 457.21Z" fill="url(#paint7_linear_142_49)"/>
<path fill-rule="evenodd" clip-rule="evenodd" d="M551.42 457.217L536.625 467.921C533.864 469.769 533.864 473.179 535.712 475.94C537.56 478.701 540.444 479.15 543.205 477.302L557.355 468.577L551.42 457.217Z" fill="url(#paint8_linear_142_49)"/>
<path d="M283.775 577.635H234.36V561.866H283.775V577.635ZM290.817 612.906H234.36C232.193 612.906 229.826 612.525 227.258 611.762C224.69 611 222.302 609.756 220.095 608.031C217.928 606.265 216.103 603.998 214.618 601.229C213.173 598.42 212.451 594.99 212.451 590.937V534.48C212.451 533.396 212.652 532.373 213.053 531.41C213.454 530.447 213.996 529.604 214.678 528.882C215.4 528.16 216.243 527.598 217.206 527.197C218.169 526.795 219.212 526.595 220.336 526.595H290.817V542.244H228.1V590.937C228.1 592.983 228.642 594.548 229.725 595.632C230.809 596.715 232.394 597.257 234.48 597.257H290.817V612.906Z" fill="black"/>
<path d="M345.409 557.412L371.772 526.595H393.139L356.002 569.871L392.898 612.906H371.651L345.409 582.33L319.287 612.906H297.98L334.816 569.871L297.859 526.595H319.046L345.409 557.412Z" fill="black"/>
<path d="M481.015 542.244H446.527V612.906H430.877V542.244H396.329V526.595H481.015V542.244Z" fill="black"/>
<path d="M578.822 555.606C578.822 559.177 578.381 562.367 577.498 565.176C576.615 567.985 575.411 570.473 573.887 572.64C572.402 574.766 570.677 576.592 568.71 578.117C566.744 579.642 564.678 580.905 562.511 581.909C560.384 582.872 558.217 583.574 556.011 584.015C553.844 584.457 551.797 584.677 549.871 584.677L582.554 612.906H558.358L525.735 584.677H514.48V569.028H549.871C551.837 568.868 553.623 568.466 555.228 567.824C556.873 567.142 558.278 566.239 559.441 565.116C560.645 563.992 561.568 562.648 562.21 561.083C562.852 559.478 563.173 557.652 563.173 555.606V545.735C563.173 544.852 563.053 544.19 562.812 543.749C562.611 543.267 562.33 542.926 561.969 542.726C561.648 542.485 561.287 542.344 560.886 542.304C560.525 542.264 560.184 542.244 559.863 542.244H508.22V612.906H492.571V534.48C492.571 533.396 492.772 532.373 493.173 531.41C493.574 530.447 494.116 529.604 494.798 528.882C495.52 528.16 496.363 527.598 497.326 527.197C498.289 526.795 499.332 526.595 500.456 526.595H559.863C563.354 526.595 566.303 527.237 568.71 528.521C571.118 529.765 573.064 531.35 574.549 533.276C576.074 535.162 577.157 537.208 577.799 539.415C578.481 541.622 578.822 543.689 578.822 545.615V555.606Z" fill="black"/>
<path d="M679.218 612.906H663.568V591.719H608.556V612.906H592.906V569.75C592.906 563.451 593.99 557.652 596.157 552.356C598.323 547.059 601.333 542.505 605.185 538.693C609.037 534.881 613.591 531.912 618.848 529.785C624.104 527.658 629.842 526.595 636.062 526.595H671.333C672.416 526.595 673.439 526.795 674.402 527.197C675.365 527.598 676.208 528.16 676.93 528.882C677.653 529.604 678.214 530.447 678.616 531.41C679.017 532.373 679.218 533.396 679.218 534.48V612.906ZM608.556 576.07H663.568V542.244H636.062C635.581 542.244 634.557 542.324 632.992 542.485C631.468 542.605 629.682 542.946 627.636 543.508C625.629 544.07 623.503 544.932 621.256 546.096C619.008 547.26 616.942 548.865 615.056 550.911C613.17 552.958 611.605 555.526 610.361 558.615C609.157 561.665 608.556 565.377 608.556 569.75V576.07Z" fill="black"/>
<path d="M774.738 612.906H718.28C716.836 612.906 715.271 612.746 713.586 612.424C711.94 612.063 710.295 611.522 708.65 610.799C707.045 610.077 705.5 609.154 704.016 608.031C702.531 606.867 701.207 605.483 700.043 603.878C698.919 602.232 698.017 600.347 697.335 598.22C696.652 596.053 696.311 593.625 696.311 590.937V548.564C696.311 547.119 696.472 545.574 696.793 543.929C697.154 542.244 697.696 540.599 698.418 538.994C699.14 537.349 700.083 535.784 701.247 534.299C702.41 532.814 703.795 531.51 705.4 530.387C707.045 529.223 708.931 528.3 711.058 527.618C713.184 526.936 715.592 526.595 718.28 526.595H774.738V542.244H718.28C716.234 542.244 714.669 542.786 713.586 543.869C712.502 544.953 711.96 546.558 711.96 548.684V590.937C711.96 592.943 712.502 594.508 713.586 595.632C714.709 596.715 716.274 597.257 718.28 597.257H774.738V612.906Z" fill="black"/>
<path d="M867.549 542.244H833.061V612.906H817.412V542.244H782.863V526.595H867.549V542.244Z" fill="black"/>
<defs>
<linearGradient id="paint0_linear_142_49" x1="514.315" y1="463.235" x2="540.824" y2="417.288" gradientUnits="userSpaceOnUse">
<stop stop-color="#8B23FC"/>
<stop offset="1" stop-color="#E73C89"/>
</linearGradient>
<linearGradient id="paint1_linear_142_49" x1="546.109" y1="423.928" x2="561.499" y2="458.151" gradientUnits="userSpaceOnUse">
<stop stop-color="#E83B7F"/>
<stop offset="1" stop-color="#D53FEE"/>
</linearGradient>
<linearGradient id="paint2_linear_142_49" x1="580.329" y1="417.588" x2="566.075" y2="448.54" gradientUnits="userSpaceOnUse">
<stop stop-color="#EA3A6D"/>
<stop offset="1" stop-color="#B132A5"/>
</linearGradient>
<linearGradient id="paint3_linear_142_49" x1="543.631" y1="393.658" x2="578.525" y2="412.194" gradientUnits="userSpaceOnUse">
<stop stop-color="#C63692"/>
<stop offset="1" stop-color="#E43A73"/>
</linearGradient>
<linearGradient id="paint4_linear_142_49" x1="543.631" y1="393.658" x2="578.525" y2="412.194" gradientUnits="userSpaceOnUse">
<stop stop-color="#C63692"/>
<stop offset="1" stop-color="#E43A73"/>
</linearGradient>
<linearGradient id="paint5_linear_142_49" x1="540.552" y1="391.503" x2="499.764" y2="418.096" gradientUnits="userSpaceOnUse">
<stop stop-color="#C63591"/>
<stop offset="0.880566" stop-color="#1902FD"/>
</linearGradient>
<linearGradient id="paint6_linear_142_49" x1="499.672" y1="412.418" x2="514.518" y2="447.429" gradientUnits="userSpaceOnUse">
<stop stop-color="#1400FF"/>
<stop offset="1" stop-color="#8B22FC"/>
</linearGradient>
<linearGradient id="paint7_linear_142_49" x1="538.519" y1="467.408" x2="509.387" y2="443.767" gradientUnits="userSpaceOnUse">
<stop stop-color="#C934FA"/>
<stop offset="1" stop-color="#1400FF"/>
</linearGradient>
<linearGradient id="paint8_linear_142_49" x1="555.51" y1="464.78" x2="538.606" y2="475.024" gradientUnits="userSpaceOnUse">
<stop stop-color="#E845FB"/>
<stop offset="1" stop-color="#C834F9"/>
</linearGradient>
</defs>
</svg>
