<svg width="1080" height="1080" viewBox="0 0 1080 1080" fill="none" xmlns="http://www.w3.org/2000/svg">
<rect width="1080" height="1080" fill="#141414"/>
<path fill-rule="evenodd" clip-rule="evenodd" d="M543.998 410.395C546.93 411.956 548.041 415.6 546.48 418.532L522.378 463.785C520.817 466.717 517.174 467.829 514.241 466.267C511.309 464.705 510.198 461.062 511.76 458.13L535.861 412.876C537.423 409.944 541.066 408.833 543.998 410.395Z" fill="url(#paint0_linear_142_35)"/>
<path d="M559.981 463.784C561.543 466.716 565.186 467.827 568.119 466.266C571.051 464.704 572.162 461.061 570.6 458.128L550.095 418.964L543.273 431.731L559.981 463.784Z" fill="url(#paint1_linear_142_35)"/>
<path d="M582.2 410.184C585.35 411.238 587.05 414.647 585.996 417.798L573.212 455.866L565.526 441.114L574.586 413.981C575.64 410.83 579.049 409.13 582.2 410.184Z" fill="url(#paint2_linear_142_35)"/>
<path d="M536.134 388.683C537.875 385.853 541.58 384.97 544.41 386.711L558.567 395.378L552.953 406.091L538.106 396.958C535.277 395.218 534.394 391.513 536.134 388.683Z" fill="url(#paint3_linear_142_35)"/>
<path d="M583.514 410.765C586.344 412.506 587.227 416.211 585.486 419.041C583.746 421.87 580.041 422.753 577.211 421.013L555.836 407.865L561.437 397.185L583.514 410.765Z" fill="url(#paint4_linear_142_35)"/>
<path fill-rule="evenodd" clip-rule="evenodd" d="M546.453 388.856C544.712 386.026 541.105 384.97 538.275 386.711L499.171 410.765C496.341 412.506 495.458 416.211 497.199 419.041C498.939 421.871 502.645 422.753 505.474 421.013L544.579 396.958C547.409 395.218 548.194 391.686 546.453 388.856Z" fill="url(#paint5_linear_142_35)"/>
<path fill-rule="evenodd" clip-rule="evenodd" d="M499.915 410.423C502.99 409.164 507.018 410.471 508.276 413.545L518.699 437.873L511.75 450.912L496.627 418.269C495.368 415.194 496.84 411.681 499.915 410.423Z" fill="url(#paint6_linear_142_35)"/>
<path fill-rule="evenodd" clip-rule="evenodd" d="M529.674 457.21L544.512 467.921C547.273 469.769 547.292 473.046 545.444 475.806C543.596 478.567 540.785 479.366 538.024 477.518L523.71 468.361L529.674 457.21Z" fill="url(#paint7_linear_142_35)"/>
<path fill-rule="evenodd" clip-rule="evenodd" d="M552.697 457.217L537.902 467.921C535.141 469.769 535.142 473.179 536.99 475.94C538.838 478.701 541.722 479.15 544.482 477.302L558.632 468.577L552.697 457.217Z" fill="url(#paint8_linear_142_35)"/>
<path d="M285.053 577.635H235.637V561.866H285.053V577.635ZM292.095 612.906H235.637C233.471 612.906 231.103 612.525 228.535 611.762C225.967 611 223.579 609.756 221.373 608.031C219.206 606.265 217.38 603.998 215.895 601.229C214.451 598.42 213.729 594.99 213.729 590.937V534.48C213.729 533.396 213.929 532.373 214.33 531.41C214.732 530.447 215.273 529.604 215.956 528.882C216.678 528.16 217.52 527.598 218.483 527.197C219.446 526.795 220.49 526.595 221.613 526.595H292.095V542.244H229.378V590.937C229.378 592.983 229.919 594.548 231.003 595.632C232.086 596.715 233.671 597.257 235.758 597.257H292.095V612.906Z" fill="white"/>
<path d="M346.686 557.412L373.049 526.595H394.416L357.28 569.871L394.175 612.906H372.929L346.686 582.33L320.564 612.906H299.257L336.093 569.871L299.137 526.595H320.323L346.686 557.412Z" fill="white"/>
<path d="M482.292 542.244H447.804V612.906H432.155V542.244H397.606V526.595H482.292V542.244Z" fill="white"/>
<path d="M580.1 555.606C580.1 559.177 579.658 562.367 578.775 565.176C577.893 567.985 576.689 570.473 575.164 572.64C573.679 574.766 571.954 576.592 569.988 578.117C568.022 579.642 565.955 580.905 563.788 581.909C561.662 582.872 559.495 583.574 557.288 584.015C555.121 584.457 553.075 584.677 551.149 584.677L583.831 612.906H559.635L527.013 584.677H515.757V569.028H551.149C553.115 568.868 554.9 568.466 556.505 567.824C558.151 567.142 559.555 566.239 560.719 565.116C561.922 563.992 562.845 562.648 563.487 561.083C564.129 559.478 564.45 557.652 564.45 555.606V545.735C564.45 544.852 564.33 544.19 564.089 543.749C563.889 543.267 563.608 542.926 563.247 542.726C562.926 542.485 562.564 542.344 562.163 542.304C561.802 542.264 561.461 542.244 561.14 542.244H509.498V612.906H493.849V534.48C493.849 533.396 494.049 532.373 494.45 531.41C494.852 530.447 495.393 529.604 496.076 528.882C496.798 528.16 497.64 527.598 498.603 527.197C499.567 526.795 500.61 526.595 501.733 526.595H561.14C564.631 526.595 567.58 527.237 569.988 528.521C572.395 529.765 574.341 531.35 575.826 533.276C577.351 535.162 578.434 537.208 579.076 539.415C579.758 541.622 580.1 543.689 580.1 545.615V555.606Z" fill="white"/>
<path d="M680.495 612.906H664.846V591.719H609.833V612.906H594.184V569.75C594.184 563.451 595.267 557.652 597.434 552.356C599.601 547.059 602.61 542.505 606.462 538.693C610.314 534.881 614.869 531.912 620.125 529.785C625.382 527.658 631.12 526.595 637.339 526.595H672.61C673.694 526.595 674.717 526.795 675.68 527.197C676.643 527.598 677.485 528.16 678.208 528.882C678.93 529.604 679.492 530.447 679.893 531.41C680.294 532.373 680.495 533.396 680.495 534.48V612.906ZM609.833 576.07H664.846V542.244H637.339C636.858 542.244 635.835 542.324 634.27 542.485C632.745 542.605 630.959 542.946 628.913 543.508C626.907 544.07 624.78 544.932 622.533 546.096C620.286 547.26 618.219 548.865 616.333 550.911C614.447 552.958 612.883 555.526 611.639 558.615C610.435 561.665 609.833 565.377 609.833 569.75V576.07Z" fill="white"/>
<path d="M776.015 612.906H719.558C718.113 612.906 716.548 612.746 714.863 612.424C713.218 612.063 711.573 611.522 709.927 610.799C708.322 610.077 706.778 609.154 705.293 608.031C703.808 606.867 702.484 605.483 701.32 603.878C700.197 602.232 699.294 600.347 698.612 598.22C697.93 596.053 697.589 593.625 697.589 590.937V548.564C697.589 547.119 697.749 545.574 698.07 543.929C698.431 542.244 698.973 540.599 699.695 538.994C700.418 537.349 701.36 535.784 702.524 534.299C703.688 532.814 705.072 531.51 706.677 530.387C708.322 529.223 710.208 528.3 712.335 527.618C714.462 526.936 716.869 526.595 719.558 526.595H776.015V542.244H719.558C717.511 542.244 715.946 542.786 714.863 543.869C713.78 544.953 713.238 546.558 713.238 548.684V590.937C713.238 592.943 713.78 594.508 714.863 595.632C715.986 596.715 717.551 597.257 719.558 597.257H776.015V612.906Z" fill="white"/>
<path d="M868.827 542.244H834.338V612.906H818.689V542.244H784.141V526.595H868.827V542.244Z" fill="white"/>
<defs>
<linearGradient id="paint0_linear_142_35" x1="515.592" y1="463.235" x2="542.102" y2="417.288" gradientUnits="userSpaceOnUse">
<stop stop-color="#8B23FC"/>
<stop offset="1" stop-color="#E73C89"/>
</linearGradient>
<linearGradient id="paint1_linear_142_35" x1="547.387" y1="423.928" x2="562.777" y2="458.151" gradientUnits="userSpaceOnUse">
<stop stop-color="#E83B7F"/>
<stop offset="1" stop-color="#D53FEE"/>
</linearGradient>
<linearGradient id="paint2_linear_142_35" x1="581.607" y1="417.588" x2="567.353" y2="448.54" gradientUnits="userSpaceOnUse">
<stop stop-color="#EA3A6D"/>
<stop offset="1" stop-color="#B132A5"/>
</linearGradient>
<linearGradient id="paint3_linear_142_35" x1="544.909" y1="393.658" x2="579.802" y2="412.194" gradientUnits="userSpaceOnUse">
<stop stop-color="#C63692"/>
<stop offset="1" stop-color="#E43A73"/>
</linearGradient>
<linearGradient id="paint4_linear_142_35" x1="544.909" y1="393.658" x2="579.802" y2="412.194" gradientUnits="userSpaceOnUse">
<stop stop-color="#C63692"/>
<stop offset="1" stop-color="#E43A73"/>
</linearGradient>
<linearGradient id="paint5_linear_142_35" x1="541.829" y1="391.503" x2="501.041" y2="418.096" gradientUnits="userSpaceOnUse">
<stop stop-color="#C63591"/>
<stop offset="0.880566" stop-color="#1902FD"/>
</linearGradient>
<linearGradient id="paint6_linear_142_35" x1="500.949" y1="412.418" x2="515.796" y2="447.429" gradientUnits="userSpaceOnUse">
<stop stop-color="#1400FF"/>
<stop offset="1" stop-color="#8B22FC"/>
</linearGradient>
<linearGradient id="paint7_linear_142_35" x1="539.797" y1="467.408" x2="510.664" y2="443.767" gradientUnits="userSpaceOnUse">
<stop stop-color="#C934FA"/>
<stop offset="1" stop-color="#1400FF"/>
</linearGradient>
<linearGradient id="paint8_linear_142_35" x1="556.787" y1="464.78" x2="539.884" y2="475.024" gradientUnits="userSpaceOnUse">
<stop stop-color="#E845FB"/>
<stop offset="1" stop-color="#C834F9"/>
</linearGradient>
</defs>
</svg>
